<svg xmlns="http://www.w3.org/2000/svg" viewBox="0 0 800 600" preserveAspectRatio="xMidYMid slice" role="img" aria-label="Motosiklet Eldiveni">
  <defs>
    <linearGradient id="bg" x1="0" y1="0" x2="0" y2="1">
      <stop offset="0" stop-color="#1f2228"/>
      <stop offset="1" stop-color="#14161a"/>
    </linearGradient>
  </defs>
  <rect width="800" height="600" fill="url(#bg)"/>
  <g transform="translate(400 260)" fill="#ffb400">
    <path d="M -70 -60 L -70 40 Q -70 70 -40 70 L 60 70 Q 90 70 90 40 L 90 -20 Q 90 -35 75 -35 Q 60 -35 60 -20 L 60 -70 Q 60 -85 45 -85 Q 30 -85 30 -70 L 30 -20 Q 30 -85 15 -85 Q 0 -85 0 -70 L 0 -20 Q 0 -95 -15 -95 Q -30 -95 -30 -80 L -30 -20 Q -30 -60 -50 -60 Z" fill="#ffb400"/>
  </g>
  <text x="400" y="500" text-anchor="middle" font-family="Barlow, Arial, sans-serif" font-weight="700" font-size="34" fill="#f6f6f7">Motosiklet Eldiveni</text>
  <text x="400" y="540" text-anchor="middle" font-family="Inter, Arial, sans-serif" font-size="18" fill="#b3b5ba">HK Motors</text>
</svg>
